# xmcd CD database file
#
# Track frame offsets:
#	150
#	4372
#	20960
#	42144
#	62457
#	77056
#	95939
#	110078
#	129838
#	145106
#	159604
#	174396
#	187134
#	204178
#	221170
#
# Disc length: 3244 seconds
#
# Revision: 1
# Processed by: cddbd v1.5.2PL0 Copyright (c) Steve Scherf et al.
# Submitted via: CDex 1.70beta2
#
DISCID=d70caa0f
DTITLE=Peter Nova - Salesmen In Exile
DYEAR=2008
DGENRE=Country
TTITLE0=Tick Tock Goes The Clock
TTITLE1=Big Adventure
TTITLE2=Side Effects
TTITLE3=Floating World
TTITLE4=I Do
TTITLE5=Salesmen In Exile
TTITLE6=Shapeshifters
TTITLE7=Whiskey Jar
TTITLE8=The Last Day Og Your Life
TTITLE9=Karaoke Couple
TTITLE10=Love And A 1/2
TTITLE11=Don't Let It Go To Your Head
TTITLE12=Over There
TTITLE13=Borderline
TTITLE14=Night Of The Year
EXTD=YEAR: 2008
EXTT0=
EXTT1=
EXTT2=
EXTT3=
EXTT4=
EXTT5=
EXTT6=
EXTT7=
EXTT8=
EXTT9=
EXTT10=
EXTT11=
EXTT12=
EXTT13=
EXTT14=
PLAYORDER=
